<?xml version="1.0" standalone="no"?>
<svg xmlns:xlink="http://www.w3.org/1999/xlink" id="wave" style="transform:rotate(0deg); transition: 0.3s" viewBox="0 0 1440 470" version="1.1" xmlns="http://www.w3.org/2000/svg"><defs><linearGradient id="sw-gradient-0" x1="0" x2="0" y1="1" y2="0"><stop stop-color="rgba(0, 96, 230, 1)" offset="0%"/><stop stop-color="rgba(0, 96, 230, 1)" offset="100%"/></linearGradient></defs><path style="transform:translate(0, 0px); opacity:1" fill="url(#sw-gradient-0)" d="M0,329L30,329C60,329,120,329,180,297.7C240,266,300,204,360,188C420,172,480,204,540,219.3C600,235,660,235,720,242.8C780,251,840,266,900,297.7C960,329,1020,376,1080,383.8C1140,392,1200,360,1260,321.2C1320,282,1380,235,1440,203.7C1500,172,1560,157,1620,125.3C1680,94,1740,47,1800,31.3C1860,16,1920,31,1980,31.3C2040,31,2100,16,2160,54.8C2220,94,2280,188,2340,211.5C2400,235,2460,188,2520,164.5C2580,141,2640,141,2700,133.2C2760,125,2820,110,2880,133.2C2940,157,3000,219,3060,211.5C3120,204,3180,125,3240,86.2C3300,47,3360,47,3420,70.5C3480,94,3540,141,3600,156.7C3660,172,3720,157,3780,148.8C3840,141,3900,141,3960,125.3C4020,110,4080,78,4140,109.7C4200,141,4260,235,4290,282L4320,329L4320,470L4290,470C4260,470,4200,470,4140,470C4080,470,4020,470,3960,470C3900,470,3840,470,3780,470C3720,470,3660,470,3600,470C3540,470,3480,470,3420,470C3360,470,3300,470,3240,470C3180,470,3120,470,3060,470C3000,470,2940,470,2880,470C2820,470,2760,470,2700,470C2640,470,2580,470,2520,470C2460,470,2400,470,2340,470C2280,470,2220,470,2160,470C2100,470,2040,470,1980,470C1920,470,1860,470,1800,470C1740,470,1680,470,1620,470C1560,470,1500,470,1440,470C1380,470,1320,470,1260,470C1200,470,1140,470,1080,470C1020,470,960,470,900,470C840,470,780,470,720,470C660,470,600,470,540,470C480,470,420,470,360,470C300,470,240,470,180,470C120,470,60,470,30,470L0,470Z"/></svg>